<?xml version="1.0" encoding="UTF-8" standalone="no"?>
<svg
   xmlns:dc="http://purl.org/dc/elements/1.1/"
   xmlns:cc="http://creativecommons.org/ns#"
   xmlns:rdf="http://www.w3.org/1999/02/22-rdf-syntax-ns#"
   xmlns:svg="http://www.w3.org/2000/svg"
   xmlns="http://www.w3.org/2000/svg"
   viewBox="0 0 187.65334 121.88"
   height="121.88"
   width="187.65334"
   xml:space="preserve"
   id="svg2"
   version="1.1"><metadata
     id="metadata8"><rdf:RDF><cc:Work
         rdf:about=""><dc:format>image/svg+xml</dc:format><dc:type
           rdf:resource="http://purl.org/dc/dcmitype/StillImage" /></cc:Work></rdf:RDF></metadata><defs
     id="defs6" /><g
     transform="matrix(1.3333333,0,0,-1.3333333,0,121.88)"
     id="g10"><g
       transform="scale(0.1)"
       id="g12"><path
         id="path14"
         style="fill:#1b458f;fill-opacity:1;fill-rule:nonzero;stroke:none"
         d="m 493.301,0 -0.008,914.098 914.107,0.019 V 0 H 493.301" /><path
         id="path16"
         style="fill:#1b458f;fill-opacity:1;fill-rule:nonzero;stroke:none"
         d="m 447.277,837.16 v -17.574 c -52.714,-3.633 -54.531,-4.844 -54.531,-38.773 V 572.395 c 0,-36.352 -6.055,-68.465 -16.348,-89.668 -27.871,-59.981 -91.496,-73.918 -151.476,-73.918 -59.375,0 -122.988,14.543 -150.8595,73.918 -10.3008,20.597 -15.75,52.707 -16.3555,88.457 v 209.629 c 0,33.929 -1.2109,35.14 -54.53122,38.773 V 837.16 H 172.219 v -17.574 c -52.715,-3.633 -54.531,-4.844 -54.531,-38.773 V 584.512 c 0,-57.559 9.082,-93.91 27.265,-118.145 18.777,-24.238 45.438,-36.351 79.969,-36.351 35.148,0 61.808,12.113 80.578,36.351 18.184,24.235 27.266,60.586 27.266,118.145 v 196.301 c 0,33.929 -1.211,35.14 -54.524,38.773 v 17.574 h 169.035" /><path
         id="path18"
         style="fill:none;stroke:#1b458f;stroke-width:6.35099983;stroke-linecap:butt;stroke-linejoin:miter;stroke-miterlimit:4;stroke-dasharray:none;stroke-opacity:1"
         d="m 447.277,837.16 v -17.574 c -52.714,-3.633 -54.531,-4.844 -54.531,-38.773 V 572.395 c 0,-36.352 -6.055,-68.465 -16.348,-89.668 -27.871,-59.981 -91.496,-73.918 -151.476,-73.918 -59.375,0 -122.988,14.543 -150.8595,73.918 -10.3008,20.597 -15.75,52.707 -16.3555,88.457 v 209.629 c 0,33.929 -1.2109,35.14 -54.53122,38.773 V 837.16 H 172.219 v -17.574 c -52.715,-3.633 -54.531,-4.844 -54.531,-38.773 V 584.512 c 0,-57.559 9.082,-93.91 27.265,-118.145 18.777,-24.238 45.438,-36.351 79.969,-36.351 35.148,0 61.808,12.113 80.578,36.351 18.184,24.235 27.266,60.586 27.266,118.145 v 196.301 c 0,33.929 -1.211,35.14 -54.524,38.773 v 17.574 z" /><path
         id="path20"
         style="fill:#ffffff;fill-opacity:1;fill-rule:nonzero;stroke:none"
         d="m 546.633,542.102 h 19.383 c 15.148,-67.86 52.707,-112.086 109.66,-112.086 53.926,0 87.246,31.504 87.246,83.609 0,53.918 -57.559,81.789 -84.219,92.09 l -10.898,4.242 c -63.614,22.418 -114.512,55.742 -114.512,119.356 0,79.976 65.43,116.933 139.355,116.933 41.192,0 82.391,-10.297 102.989,-26.66 V 734.16 h -18.782 c -9.695,61.192 -38.777,90.879 -90.878,90.879 -50.887,0 -77.547,-32.715 -77.547,-76.941 0,-36.356 33.925,-62.41 74.519,-77.555 l 19.387,-7.27 c 70.887,-26.05 119.355,-59.98 119.355,-131.476 0,-61.797 -42.402,-122.988 -149.648,-122.988 -42.402,0 -92.695,11.507 -119.355,36.351 l -6.055,96.942" /><path
         id="path22"
         style="fill:none;stroke:#ffffff;stroke-width:6.35099983;stroke-linecap:butt;stroke-linejoin:miter;stroke-miterlimit:4;stroke-dasharray:none;stroke-opacity:1"
         d="m 546.633,542.102 h 19.383 c 15.148,-67.86 52.707,-112.086 109.66,-112.086 53.926,0 87.246,31.504 87.246,83.609 0,53.918 -57.559,81.789 -84.219,92.09 l -10.898,4.242 c -63.614,22.418 -114.512,55.742 -114.512,119.356 0,79.976 65.43,116.933 139.355,116.933 41.192,0 82.391,-10.297 102.989,-26.66 V 734.16 h -18.782 c -9.695,61.192 -38.777,90.879 -90.878,90.879 -50.887,0 -77.547,-32.715 -77.547,-76.941 0,-36.356 33.925,-62.41 74.519,-77.555 l 19.387,-7.27 c 70.887,-26.05 119.355,-59.98 119.355,-131.476 0,-61.797 -42.402,-122.988 -149.648,-122.988 -42.402,0 -92.695,11.507 -119.355,36.351 z" /><path
         id="path24"
         style="fill:#ffffff;fill-opacity:1;fill-rule:nonzero;stroke:none"
         d="m 1257.91,728.102 h -18.18 c -11.52,71.492 -54.52,96.937 -116.32,96.937 -112.7,0.606 -152.082,-99.359 -152.082,-198.726 0,-73.309 26.055,-196.297 150.872,-196.297 79.36,0 110.26,46.043 127.23,109.05 h 18.17 l -8.48,-101.175 c -29.09,-15.75 -84.82,-29.082 -133.29,-29.082 -67.86,0 -127.236,13.937 -164.803,51.5 -36.347,36.351 -57.558,93.3 -57.558,164.187 0,68.465 20.605,120.567 55.136,159.348 36.356,40.59 96.335,62.402 170.855,62.402 55.14,0 101.19,-10.902 128.45,-23.629 v -94.515" /><path
         id="path26"
         style="fill:none;stroke:#ffffff;stroke-width:6.35099983;stroke-linecap:butt;stroke-linejoin:miter;stroke-miterlimit:4;stroke-dasharray:none;stroke-opacity:1"
         d="m 1257.91,728.102 h -18.18 c -11.52,71.492 -54.52,96.937 -116.32,96.937 -112.7,0.606 -152.082,-99.359 -152.082,-198.726 0,-73.309 26.055,-196.297 150.872,-196.297 79.36,0 110.26,46.043 127.23,109.05 h 18.17 l -8.48,-101.175 c -29.09,-15.75 -84.82,-29.082 -133.29,-29.082 -67.86,0 -127.236,13.937 -164.803,51.5 -36.347,36.351 -57.558,93.3 -57.558,164.187 0,68.465 20.605,120.567 55.136,159.348 36.356,40.59 96.335,62.402 170.855,62.402 55.14,0 101.19,-10.902 128.45,-23.629 z" /><path
         id="path28"
         style="fill:#ffffff;fill-opacity:1;fill-rule:nonzero;stroke:none"
         d="m 545.715,328.512 -0.527,8.066 -3.77,0.535 -0.547,4.309 h 18.301 l -0.547,-4.309 -3.77,-0.535 -0.527,-8.066 v -24.836 c 0,-4.387 0,-11.473 1.524,-15.508 2.058,-5.824 7.89,-8.871 13.886,-8.871 4.942,0 10.313,2.148 12.91,6.457 2.696,4.48 2.422,10.93 2.422,16.043 v 26.715 l -0.539,8.066 -3.758,0.535 -0.546,4.309 h 16.316 l -0.535,-4.309 -3.77,-0.535 -0.527,-8.066 v -24.383 c 0,-7.082 0.352,-13.805 -3.594,-20.082 -4.472,-7.082 -11.027,-9.051 -19.004,-9.051 -6.992,0 -13.984,1.609 -18.644,7.348 -4.395,5.383 -4.754,12.73 -4.754,19.453 v 26.715" /><path
         id="path30"
         style="fill:#ffffff;fill-opacity:1;fill-rule:nonzero;stroke:none"
         d="m 612.141,328.512 -0.539,8.066 -3.758,0.535 -0.547,4.309 h 11.562 l 33.985,-52.805 v 39.895 l -0.547,8.066 -3.762,0.535 -0.535,4.309 h 15.781 l -0.547,-4.309 -3.761,-0.535 -0.535,-8.066 v -52.711 h -7.356 l -33.348,51.906 v -38.191 l 0.547,-8.071 3.758,-0.535 0.539,-4.305 h -15.781 l 0.547,4.305 3.758,0.535 0.539,8.071 v 38.996" /><path
         id="path32"
         style="fill:#ffffff;fill-opacity:1;fill-rule:nonzero;stroke:none"
         d="m 680.449,328.512 -0.535,8.066 -3.769,0.535 -0.54,4.309 h 18.293 l -0.546,-4.309 -3.762,-0.535 -0.535,-8.066 v -38.996 l 0.535,-8.071 3.762,-0.535 0.546,-4.305 h -18.293 l 0.54,4.305 3.769,0.535 0.535,8.071 v 38.996" /><path
         id="path34"
         style="fill:#ffffff;fill-opacity:1;fill-rule:nonzero;stroke:none"
         d="m 708.859,329.496 -3.222,7.082 -2.696,0.535 -0.527,4.309 h 17.832 l -0.539,-4.309 -4.305,-0.535 18.203,-47.328 17.481,47.328 -4.297,0.535 -0.547,4.309 h 13.809 l -0.539,-4.309 -2.684,-0.535 -3.945,-9.14 -19.004,-51.637 h -4.309 l -20.711,53.695" /><path
         id="path36"
         style="fill:#ffffff;fill-opacity:1;fill-rule:nonzero;stroke:none"
         d="m 767.941,276.605 0.528,4.305 3.769,0.535 0.547,8.071 v 38.996 l -0.547,8.066 -3.769,0.535 -0.528,4.309 h 41.055 l -0.547,-9.777 -4.297,0.543 -0.539,4.39 -9.226,0.535 h -13.008 v -24.379 h 22.773 l -0.539,-4.843 -10.847,0.539 h -11.387 v -18.914 l 0.547,-8.071 h 14.695 l 8.879,0.543 0.535,4.84 4.309,0.535 0.527,-10.758 h -42.93" /><path
         id="path38"
         style="fill:#ffffff;fill-opacity:1;fill-rule:nonzero;stroke:none"
         d="m 832.922,305.199 h 7.801 l 17.218,-28.594 h 13.086 l -0.539,4.305 -3.758,0.535 -5.292,7.262 -12.188,18.379 c 8.242,2.691 13.535,9.5 13.535,18.285 0,5.199 -1.972,9.953 -6.367,13 -3.859,2.688 -8.789,3.051 -13.359,3.051 h -23.575 l 0.536,-4.309 3.761,-0.535 0.547,-8.066 v -38.996 l -0.547,-8.071 -3.761,-0.535 -0.536,-4.305 h 17.207 l -0.539,4.305 -3.23,0.535 z m 0,4.309 v 26.531 c 2.519,0.625 5.019,1.074 7.625,1.074 7.883,0 13.086,-3.851 13.086,-12.097 0,-4.571 -1.258,-9.328 -4.93,-12.282 -3.848,-3.14 -9.238,-3.226 -14.074,-3.226 h -1.707" /><path
         id="path40"
         style="fill:#ffffff;fill-opacity:1;fill-rule:nonzero;stroke:none"
         d="m 880.254,288.801 4.309,-0.539 0.535,-4.395 c 3.672,-2.422 7.804,-4.57 12.277,-4.57 7.266,0 13.184,4.66 13.184,12.191 0,8.25 -6.192,11.114 -12.461,14.7 -7.793,4.394 -17.305,9.414 -17.305,19.632 0,4.664 2.07,9.055 5.379,12.282 3.683,3.589 8.156,4.929 13.273,4.929 5.547,0 11.2,-0.984 16.485,-2.687 l -0.528,-10.039 -4.308,0.535 -0.535,4.394 c -3.411,2.063 -7.266,3.496 -11.211,3.496 -5.918,0 -10.129,-5.113 -10.129,-10.847 0,-7.082 5.832,-10.129 11.203,-13.176 3.867,-2.242 8.516,-4.844 12.012,-7.535 4.394,-3.402 6.726,-7.977 6.726,-13.535 0,-11.742 -10.125,-18.641 -21.062,-18.641 -6.192,0 -12.461,1.344 -18.379,2.953 l 0.535,10.852" /><path
         id="path42"
         style="fill:#ffffff;fill-opacity:1;fill-rule:nonzero;stroke:none"
         d="m 934.484,328.512 -0.527,8.066 -3.769,0.535 -0.54,4.309 h 18.293 l -0.546,-4.309 -3.762,-0.535 -0.535,-8.066 v -38.996 l 0.535,-8.071 3.762,-0.535 0.546,-4.305 h -18.293 l 0.54,4.305 3.769,0.535 0.527,8.071 v 38.996" /><path
         id="path44"
         style="fill:#ffffff;fill-opacity:1;fill-rule:nonzero;stroke:none"
         d="m 959.855,276.605 h 26.094 c 9.492,0 17.561,1.887 24.101,9.325 5.92,6.722 8.16,15.867 8.16,24.562 0,8.156 -2.24,17.121 -8.16,23.039 -6.27,6.364 -14.249,7.891 -22.851,7.891 h -27.344 l 0.547,-4.309 3.758,-0.535 0.539,-8.066 v -38.996 l -0.539,-8.071 -3.758,-0.535 z m 13.985,5.383 -0.539,7.528 v 47.597 h 5.832 c 7.976,0 15.683,-0.355 21.777,-6.004 6.02,-5.558 8.16,-13.355 8.16,-21.246 0,-6.898 -1.7,-14.879 -6.09,-20.347 -5.117,-6.453 -12.011,-8.071 -19.902,-8.071 l -9.238,0.543" /><path
         id="path46"
         style="fill:#ffffff;fill-opacity:1;fill-rule:nonzero;stroke:none"
         d="m 1039.64,296.059 h 27.16 l 5.92,-14.614 -4.31,-0.535 -0.53,-4.305 h 17.92 l -0.54,4.305 -2.68,0.535 -3.41,7.086 -21.34,53.965 h -5.19 l -20.35,-51.906 -4.39,-9.145 -2.69,-0.535 -0.54,-4.305 h 14.34 l -0.54,4.305 -4.3,0.535 z m 1.7,4.304 11.84,30.297 11.92,-30.297 z" /><path
         id="path48"
         style="fill:#ffffff;fill-opacity:1;fill-rule:nonzero;stroke:none"
         d="m 1093.33,276.605 h 26.1 c 9.49,0 17.55,1.887 24.1,9.325 5.91,6.722 8.16,15.867 8.16,24.562 0,8.156 -2.25,17.121 -8.16,23.039 -6.27,6.364 -14.25,7.891 -22.85,7.891 h -27.35 l 0.54,-4.309 3.76,-0.535 0.55,-8.066 v -38.996 l -0.55,-8.071 -3.76,-0.535 z m 13.99,5.383 -0.54,7.528 v 47.597 h 5.83 c 7.97,0 15.68,-0.355 21.78,-6.004 6.01,-5.558 8.16,-13.355 8.16,-21.246 0,-6.898 -1.71,-14.879 -6.09,-20.347 -5.12,-6.453 -12.02,-8.071 -19.91,-8.071 l -9.23,0.543" /><path
         id="path50"
         style="fill:#ffffff;fill-opacity:1;fill-rule:nonzero;stroke:none"
         d="m 1162.98,276.605 0.55,4.305 3.76,0.535 0.53,8.071 v 38.996 l -0.53,8.066 -3.76,0.535 -0.55,4.309 h 41.05 l -0.52,-9.777 -4.31,0.543 -0.54,4.39 -9.23,0.535 h -12.99 v -24.379 h 22.76 l -0.54,-4.843 -10.85,0.539 h -11.37 v -18.914 l 0.52,-8.071 h 14.71 l 8.87,0.543 0.55,4.84 4.29,0.535 0.55,-10.758 h -42.95" /><path
         id="path52"
         style="fill:#ffffff;fill-opacity:1;fill-rule:nonzero;stroke:none"
         d="m 541.953,166.965 h 26.086 c 9.5,0 17.566,1.883 24.121,9.324 5.906,6.723 8.145,15.863 8.145,24.563 0,8.156 -2.239,17.121 -8.145,23.035 -6.281,6.367 -14.258,7.89 -22.871,7.89 h -27.336 l 0.539,-4.3 3.77,-0.543 0.527,-8.067 v -38.992 l -0.527,-8.066 -3.77,-0.539 z m 13.985,5.379 -0.536,7.531 v 47.602 h 5.821 c 7.988,0 15.691,-0.364 21.785,-6.008 6.008,-5.559 8.156,-13.36 8.156,-21.25 0,-6.899 -1.699,-14.875 -6.094,-20.344 -5.109,-6.457 -12.011,-8.066 -19.902,-8.066 l -9.23,0.535" /><path
         id="path54"
         style="fill:#ffffff;fill-opacity:1;fill-rule:nonzero;stroke:none"
         d="m 611.602,166.965 0.539,4.305 3.769,0.539 0.535,8.066 v 38.992 l -0.535,8.067 -3.769,0.543 -0.539,4.3 h 41.066 l -0.547,-9.769 -4.297,0.535 -0.547,4.391 -9.23,0.543 H 625.051 V 203.09 h 22.773 l -0.547,-4.836 -10.839,0.535 h -11.387 v -18.914 l 0.535,-8.066 h 14.699 l 8.887,0.535 0.527,4.84 4.305,0.535 0.539,-10.754 h -42.941" /><path
         id="path56"
         style="fill:#ffffff;fill-opacity:1;fill-rule:nonzero;stroke:none"
         d="m 691.75,179.156 4.297,-0.539 0.535,-4.394 c 3.684,-2.414 7.805,-4.571 12.277,-4.571 7.266,0 13.184,4.664 13.184,12.196 0,8.246 -6.191,11.113 -12.461,14.699 -7.793,4.391 -17.305,9.41 -17.305,19.629 0,4.664 2.071,9.058 5.379,12.285 3.684,3.586 8.157,4.93 13.274,4.93 5.554,0 11.199,-0.989 16.492,-2.688 l -0.535,-10.043 -4.309,0.535 -0.535,4.395 c -3.41,2.062 -7.266,3.496 -11.211,3.496 -5.918,0 -10.117,-5.106 -10.117,-10.844 0,-7.086 5.82,-10.133 11.191,-13.179 3.867,-2.239 8.524,-4.844 12.02,-7.528 4.387,-3.406 6.719,-7.98 6.719,-13.535 0,-11.742 -10.125,-18.648 -21.063,-18.648 -6.191,0 -12.461,1.343 -18.379,2.961 l 0.547,10.843" /><path
         id="path58"
         style="fill:#ffffff;fill-opacity:1;fill-rule:nonzero;stroke:none"
         d="m 751.262,186.418 h 27.168 l 5.918,-14.609 -4.309,-0.539 -0.535,-4.305 h 17.93 l -0.547,4.305 -2.676,0.539 -3.418,7.078 -21.328,53.965 h -5.195 l -20.352,-51.903 -4.395,-9.14 -2.695,-0.539 -0.527,-4.305 h 14.336 l -0.539,4.305 -4.305,0.539 z m 1.699,4.301 11.836,30.301 11.933,-30.301 z" /><path
         id="path60"
         style="fill:#ffffff;fill-opacity:1;fill-rule:nonzero;stroke:none"
         d="m 809.797,218.867 -0.527,8.067 -3.77,0.543 -0.547,4.3 h 11.57 l 33.977,-52.8 v 39.89 l -0.547,8.067 -3.762,0.543 -0.535,4.3 h 15.782 l -0.547,-4.3 -3.762,-0.543 -0.535,-8.067 v -52.711 h -7.344 l -33.359,51.907 v -38.188 l 0.547,-8.066 3.757,-0.539 0.539,-4.305 h -15.781 l 0.547,4.305 3.77,0.539 0.527,8.066 v 38.992" /><path
         id="path62"
         style="fill:#ffffff;fill-opacity:1;fill-rule:nonzero;stroke:none"
         d="m 893.801,227.477 h -11.309 l -7.07,-0.543 -0.547,-4.926 -4.297,-0.539 -0.539,10.308 h 56.113 l -0.535,-10.308 -4.297,0.539 -0.547,4.926 -7.082,0.543 h -11.296 v -47.602 l 0.546,-8.066 3.758,-0.539 0.539,-4.305 h -18.281 l 0.527,4.305 3.77,0.539 0.547,8.066 v 47.602" /><path
         id="path64"
         style="fill:#ffffff;fill-opacity:1;fill-rule:nonzero;stroke:none"
         d="m 939.688,218.867 -0.536,8.067 -3.769,0.543 -0.528,4.3 h 18.282 l -0.539,-4.3 -3.758,-0.543 -0.547,-8.067 v -38.992 l 0.547,-8.066 3.758,-0.539 0.539,-4.305 h -18.282 l 0.528,4.305 3.769,0.539 0.536,8.066 v 38.992" /><path
         id="path66"
         style="fill:#ffffff;fill-opacity:1;fill-rule:nonzero;stroke:none"
         d="m 975.188,186.418 h 27.162 l 5.92,-14.609 -4.31,-0.539 -0.53,-4.305 h 17.93 l -0.55,4.305 -2.68,0.539 -3.41,7.078 -21.329,53.965 h -5.207 l -20.34,-51.903 -4.395,-9.14 -2.695,-0.539 -0.539,-4.305 h 14.348 l -0.547,4.305 -4.297,0.539 z m 1.699,4.301 11.836,30.301 11.927,-30.301 z" /><path
         id="path68"
         style="fill:#ffffff;fill-opacity:1;fill-rule:nonzero;stroke:none"
         d="m 1071.91,187.766 -4.93,0.535 -0.54,4.301 h 18.92 l -0.54,-4.301 -3.76,-0.535 -0.54,-9.235 v -9.953 c -6.82,-1.789 -13.71,-3.226 -20.8,-3.226 -20.62,0 -31.37,14.878 -31.37,34.425 0,8.067 2.24,17.481 7.43,23.84 5.92,7.176 14.25,9.774 23.31,9.774 7.44,0 14.89,-1.258 21.97,-3.231 l -0.54,-11.379 -4.31,0.535 -0.53,4.934 c -4.94,2.777 -10.04,4.836 -15.79,4.836 -16.4,0 -22.4,-16.492 -22.4,-30.391 0,-15.414 8.42,-28.773 25.1,-28.773 3.13,0 6.27,0.539 9.32,1.348 v 16.496" /><path
         id="path70"
         style="fill:#ffffff;fill-opacity:1;fill-rule:nonzero;stroke:none"
         d="m 1125.07,165.352 c 9.14,0 17.12,3.226 22.95,10.402 5.47,6.719 6.99,15.144 6.99,23.574 0,8.965 -1.71,17.66 -7.71,24.559 -5.82,6.636 -13.54,9.504 -22.23,9.504 -9.14,0 -17.21,-3.231 -22.95,-10.399 -5.47,-6.722 -7.09,-15.148 -7.09,-23.664 0,-8.699 1.62,-17.215 7.44,-24.023 5.74,-6.907 13.72,-9.953 22.6,-9.953 z m 0,4.3 c -16.06,0 -20.89,16.496 -20.89,29.676 0,13.266 4.83,29.758 20.89,29.758 15.96,0 20.8,-16.492 20.8,-29.758 0,-13.18 -4.84,-29.676 -20.8,-29.676" /><path
         id="path72"
         style="fill:#ffffff;fill-opacity:1;fill-rule:nonzero;stroke:none"
         d="m 541.953,57.3242 h 26.086 c 9.5,0 17.566,1.875 24.121,9.3164 5.906,6.7305 8.145,15.8789 8.145,24.5703 0,8.1563 -2.239,17.1211 -8.145,23.0391 -6.281,6.355 -14.258,7.879 -22.871,7.879 h -27.336 l 0.539,-4.297 3.77,-0.535 0.527,-8.078 V 70.2344 l -0.527,-8.0664 -3.77,-0.5469 z m 13.985,5.3711 -0.536,7.5391 v 47.5976 h 5.821 c 7.988,0 15.691,-0.352 21.785,-6.004 6.008,-5.558 8.156,-13.3592 8.156,-21.2421 0,-6.914 -1.699,-14.8828 -6.094,-20.3515 -5.109,-6.4649 -12.011,-8.0664 -19.902,-8.0664 l -9.23,0.5273" /><path
         id="path74"
         style="fill:#ffffff;fill-opacity:1;fill-rule:nonzero;stroke:none"
         d="m 611.602,57.3242 0.539,4.2969 3.769,0.5469 0.535,8.0664 v 38.9846 l -0.535,8.078 -3.769,0.535 -0.539,4.297 h 41.066 l -0.547,-9.766 -4.297,0.539 -0.547,4.395 -9.23,0.535 H 625.051 V 93.4492 h 22.773 l -0.547,-4.8359 -10.839,0.5273 H 625.051 V 70.2344 l 0.535,-8.0664 h 14.699 l 8.887,0.5273 0.527,4.8438 4.305,0.5468 0.539,-10.7617 h -42.941" /><path
         id="path76"
         style="fill:#ffffff;fill-opacity:1;fill-rule:nonzero;stroke:none"
         d="m 742.48,120.527 -0.535,-10.312 -4.308,0.539 -0.535,4.57 c -4.485,2.598 -9.141,4.121 -14.161,4.121 -7.539,0 -13.632,-3.136 -17.578,-9.679 -3.574,-5.918 -5.285,-13.809 -5.285,-20.7035 0,-14.8828 8.254,-28.7891 24.563,-28.7891 6.277,0 13.359,2.0704 18.464,5.7422 v -5.1054 c -6.003,-3.8594 -13.269,-5.2071 -20.261,-5.2071 -9.406,0 -17.481,2.3438 -23.75,9.7774 -6.008,6.9922 -8.156,15.5937 -8.156,24.6562 0,8.2422 2.335,17.8323 7.804,24.1993 6.172,7.266 14.512,9.414 23.75,9.414 6.817,0 12.098,-1.172 18.641,-2.871 l 1.347,-0.352" /><path
         id="path78"
         style="fill:#ffffff;fill-opacity:1;fill-rule:nonzero;stroke:none"
         d="m 784.434,55.7031 c 9.14,0 17.121,3.2344 22.941,10.4102 5.469,6.7187 6.992,15.1367 6.992,23.5742 0,8.9648 -1.699,17.6565 -7.695,24.5625 -5.84,6.629 -13.547,9.5 -22.238,9.5 -9.149,0 -17.215,-3.223 -22.95,-10.398 -5.468,-6.731 -7.078,-15.1489 -7.078,-23.6645 0,-8.6992 1.61,-17.2148 7.442,-24.0234 5.73,-6.9141 13.711,-9.961 22.586,-9.961 z m 0,4.3086 c -16.043,0 -20.887,16.4922 -20.887,29.6758 0,13.2615 4.844,29.7575 20.887,29.7575 15.949,0 20.793,-16.496 20.793,-29.7575 0,-13.1836 -4.844,-29.6758 -20.793,-29.6758" /><path
         id="path80"
         style="fill:#ffffff;fill-opacity:1;fill-rule:nonzero;stroke:none"
         d="m 837.141,70.2344 0.535,-8.0664 3.762,-0.5469 0.546,-4.2969 h -16.32 l 0.539,4.2969 3.77,0.5469 0.535,8.0664 v 38.9846 l -0.535,8.078 -3.77,0.535 -0.539,4.297 h 15.508 l 18.195,-47.6837 18.926,47.6837 h 13.262 l -0.539,-4.297 -3.758,-0.535 -0.547,-8.078 V 70.2344 l 0.547,-8.0664 3.758,-0.5469 0.539,-4.2969 h -17.754 l 0.547,4.2969 3.757,0.5469 0.54,8.0664 v 39.4336 h -0.176 l -18.731,-47.5 h -4.316 l -18.106,47.5 h -0.175 V 70.2344" /><path
         id="path82"
         style="fill:#ffffff;fill-opacity:1;fill-rule:nonzero;stroke:none"
         d="m 916.828,84.3086 h 1.621 c 6.446,0 13.887,0.5352 19.629,3.7578 6.27,3.5938 9.051,10.1367 9.051,17.2186 0,11.824 -7.801,16.844 -18.914,16.844 h -24.824 l 0.527,-4.297 3.77,-0.535 0.535,-8.078 V 70.2344 l -0.535,-8.0664 -3.77,-0.5469 -0.527,-4.2969 h 19.453 l -0.547,4.2969 -5.469,0.5469 z m 0,4.3047 v 28.1447 c 2.598,0.625 5.203,1.074 7.801,1.074 8.703,0 13.359,-3.672 13.359,-12.637 0,-4.843 -1.531,-9.863 -5.293,-13.0075 -4.207,-3.4961 -8.965,-3.5742 -14.07,-3.5742 h -1.797" /><path
         id="path84"
         style="fill:#ffffff;fill-opacity:1;fill-rule:nonzero;stroke:none"
         d="m 984.953,55.7031 c 9.149,0 17.127,3.2344 22.947,10.4102 5.47,6.7187 6.99,15.1367 6.99,23.5742 0,8.9648 -1.7,17.6565 -7.7,24.5625 -5.83,6.629 -13.538,9.5 -22.237,9.5 -9.14,0 -17.207,-3.223 -22.949,-10.398 -5.461,-6.731 -7.07,-15.1489 -7.07,-23.6645 0,-8.6992 1.609,-17.2148 7.441,-24.0234 5.73,-6.9141 13.711,-9.961 22.578,-9.961 z m 0,4.3086 c -16.035,0 -20.879,16.4922 -20.879,29.6758 0,13.2615 4.844,29.7575 20.879,29.7575 15.957,0 20.797,-16.496 20.797,-29.7575 0,-13.1836 -4.84,-29.6758 -20.797,-29.6758" /><path
         id="path86"
         style="fill:#ffffff;fill-opacity:1;fill-rule:nonzero;stroke:none"
         d="m 1026.46,69.5117 4.3,-0.5351 0.54,-4.3868 c 3.67,-2.4218 7.8,-4.5781 12.29,-4.5781 7.26,0 13.17,4.6563 13.17,12.1953 0,8.2422 -6.18,11.1133 -12.46,14.6993 -7.8,4.3945 -17.3,9.414 -17.3,19.6367 0,4.648 2.06,9.043 5.37,12.277 3.69,3.582 8.17,4.93 13.28,4.93 5.55,0 11.2,-0.984 16.49,-2.695 l -0.54,-10.039 -4.3,0.547 -0.54,4.386 c -3.41,2.059 -7.26,3.496 -11.2,3.496 -5.92,0 -10.14,-5.109 -10.14,-10.851 0,-7.071 5.83,-10.1252 11.21,-13.1721 3.85,-2.2383 8.52,-4.836 12.01,-7.5313 4.4,-3.4062 6.72,-7.9765 6.72,-13.5351 0,-11.7383 -10.12,-18.6524 -21.06,-18.6524 -6.18,0 -12.45,1.3477 -18.37,2.9688 l 0.53,10.8398" /><path
         id="path88"
         style="fill:#ffffff;fill-opacity:1;fill-rule:nonzero;stroke:none"
         d="m 1096.38,117.832 h -11.29 l -7.09,-0.535 -0.53,-4.934 -4.3,-0.535 -0.54,10.301 h 56.11 l -0.54,-10.301 -4.3,0.535 -0.53,4.934 -7.09,0.535 h -11.29 V 70.2344 l 0.53,-8.0664 3.77,-0.5469 0.54,-4.2969 h -18.3 l 0.55,4.2969 3.76,0.5469 0.54,8.0664 v 47.5976" /><path
         id="path90"
         style="fill:#ffffff;fill-opacity:1;fill-rule:nonzero;stroke:none"
         d="m 1137.43,57.3242 0.55,4.2969 3.76,0.5469 0.54,8.0664 v 38.9846 l -0.54,8.078 -3.76,0.535 -0.55,4.297 h 41.06 l -0.53,-9.766 -4.31,0.539 -0.53,4.395 -9.24,0.535 h -12.99 V 93.4492 h 22.76 l -0.53,-4.8359 -10.85,0.5273 h -11.38 V 70.2344 l 0.53,-8.0664 h 14.7 l 8.87,0.5273 0.55,4.8438 4.3,0.5468 0.54,-10.7617 h -42.95" /><path
         id="path92"
         style="fill:#ffffff;fill-opacity:1;fill-rule:nonzero;stroke:none"
         d="m 1193.82,109.219 -0.54,8.078 -3.76,0.535 -0.54,4.297 h 18.29 l -0.54,-4.297 -3.77,-0.535 -0.53,-8.078 V 70.2344 l 0.63,-8.0664 h 14.61 l 9.14,0.5273 0.54,6.0156 4.3,0.5274 0.54,-11.9141 h -43.21 l 0.54,4.2969 3.76,0.5469 0.54,8.0664 v 38.9846" /><path
         id="path94"
         style="fill:#ffffff;fill-opacity:1;fill-rule:nonzero;stroke:none"
         d="m 1250.38,76.7773 h 27.17 l 5.91,-14.6093 -4.3,-0.5469 -0.54,-4.2969 h 17.93 l -0.53,4.2969 -2.7,0.5469 -3.41,7.0703 -21.32,53.9647 h -5.21 l -20.34,-51.8944 -4.4,-9.1406 -2.69,-0.5469 -0.54,-4.2969 h 14.35 l -0.54,4.2969 -4.31,0.5469 z m 1.71,4.2969 11.83,30.3048 11.92,-30.3048 z" /></g></g></svg>