<?xml version="1.0" encoding="utf-8"?>
<!-- Generator: Adobe Illustrator 25.0.1, SVG Export Plug-In . SVG Version: 6.00 Build 0)  -->
<svg version="1.1" id="Capa_1" xmlns="http://www.w3.org/2000/svg" xmlns:xlink="http://www.w3.org/1999/xlink" x="0px" y="0px"
	 viewBox="0 0 672 149" style="enable-background:new 0 0 672 149;" xml:space="preserve">
<style type="text/css">
	.st0{fill:#E10600;}
	.st1{fill:#8A2B2B;}
</style>
<path class="st0" d="M189.8,110c1.7,0,3.3,0.6,4.5,1.9l12.9,13.6c-5.5,7.3-12.9,13.1-21.3,16.7c-8.5,3.8-18.6,5.6-30.2,5.6
	c-9.8,0.2-19.6-1.7-28.7-5.4c-8.2-3.4-15.5-8.5-21.5-15c-6-6.6-10.6-14.4-13.5-22.8c-3.2-9.2-4.8-18.9-4.7-28.6
	c-0.1-9.9,1.7-19.7,5.4-28.9c3.4-8.5,8.6-16.3,15.1-22.7c6.7-6.5,14.5-11.5,23.2-14.9c9.5-3.6,19.6-5.4,29.8-5.3
	c5,0,10,0.5,14.9,1.4c4.5,0.8,8.9,2.2,13.1,3.9c7.6,3,14.6,7.6,20.3,13.5l-11,14.8c-0.7,0.9-1.6,1.8-2.5,2.5c-1.2,0.8-2.6,1.2-4,1.1
	c-1.1,0-2.3-0.3-3.3-0.8c-1.1-0.6-2.2-1.2-3.3-1.9c-1.2-0.7-2.4-1.5-3.8-2.4c-1.5-1-3.2-1.8-4.9-2.4c-2.2-0.8-4.4-1.5-6.7-1.9
	c-2.9-0.6-5.9-0.8-8.9-0.8c-5.6-0.1-11.1,1-16.2,3.1c-4.8,2-9.1,5.1-12.6,9c-3.6,4.1-6.4,8.9-8.2,14.1c-2,6-3,12.3-2.9,18.6
	c-0.1,6.5,0.9,13,2.9,19.2c1.7,5.2,4.4,10,8,14.1c3.3,3.7,7.3,6.7,11.8,8.7c4.6,2,9.5,3,14.5,3c2.7,0,5.4-0.1,8.1-0.4
	c2.3-0.3,4.6-0.8,6.8-1.5c2.1-0.7,4.1-1.6,6-2.7c2-1.2,3.9-2.6,5.7-4.2c0.8-0.6,1.6-1.2,2.5-1.6C187.9,110.2,188.8,110,189.8,110z"
	/>
<path class="st0" d="M250,46.4v63.5c0,5,1.1,8.8,3.4,11.5s5.6,4,9.9,4c3.2,0,6.3-0.7,9.2-2c3.1-1.4,5.9-3.4,8.3-5.7V46.4h29.9v100
	h-18.5c-3.7,0-6.2-1.7-7.3-5l-1.8-5.8c-1.9,1.9-3.9,3.6-6,5.1c-2.1,1.5-4.3,2.8-6.6,3.9c-2.4,1.1-5,2-7.6,2.5
	c-2.9,0.6-5.9,0.9-8.9,0.9c-5,0.1-9.9-0.8-14.5-2.8c-4.1-1.8-7.8-4.5-10.7-8c-3-3.5-5.2-7.7-6.6-12.1c-1.5-4.9-2.3-10-2.2-15.2V46.4
	H250z"/>
<path class="st0" d="M364.8,2v144.4h-29.9V2H364.8z"/>
<path class="st0" d="M424,147.9c-4.3,0.1-8.6-0.6-12.6-2.1c-3.5-1.3-6.6-3.3-9.2-5.9c-2.6-2.6-4.5-5.7-5.6-9.2
	c-1.3-3.9-2-8-1.9-12.1V67h-8.5c-1.5,0-2.9-0.5-4-1.5c-1.1-1.2-1.7-2.8-1.6-4.4V49.5l15.9-3.1l5.9-24.4c0.8-3.1,3-4.6,6.6-4.6h15.6
	v29.2h24.3V67h-24.3v49.7c-0.1,2,0.5,4,1.7,5.7c1.1,1.5,3,2.4,4.9,2.3c0.9,0,1.8-0.1,2.7-0.3c0.7-0.2,1.3-0.5,1.9-0.8
	c0.5-0.3,1.1-0.5,1.5-0.8c0.5-0.2,1.1-0.3,1.7-0.3c0.8,0,1.5,0.2,2.2,0.6c0.7,0.6,1.2,1.3,1.7,2l9.1,14.2c-3.9,2.9-8.3,5.1-13,6.5
	C434.1,147.2,429,147.9,424,147.9z"/>
<path class="st0" d="M508.8,44.8c6.2-0.1,12.4,1,18.2,3.1c5.3,1.9,10.2,5,14.2,9c4.1,4.1,7.2,9,9.3,14.4c2.3,6.2,3.4,12.7,3.3,19.3
	c0,1.8-0.1,3.7-0.3,5.5c-0.1,1.2-0.5,2.4-1.1,3.4c-0.5,0.8-1.2,1.4-2.1,1.7c-1.1,0.3-2.2,0.5-3.3,0.5h-57.7c1,8.4,3.5,14.4,7.6,18.2
	s9.4,5.6,15.9,5.6c3.1,0.1,6.1-0.4,9-1.3c2.3-0.8,4.5-1.7,6.7-2.8c2-1,3.8-2,5.4-2.8c1.6-0.8,3.4-1.3,5.2-1.3
	c2.1-0.1,4.2,0.9,5.4,2.6l8.7,10.7c-2.9,3.3-6.3,6.2-10,8.6c-3.4,2.2-7.1,3.9-11,5.2c-3.7,1.2-7.5,2.1-11.3,2.6
	c-3.6,0.5-7.2,0.7-10.8,0.7c-6.7,0.1-13.4-1.1-19.7-3.4c-6-2.2-11.5-5.7-16.1-10.2c-4.8-4.8-8.5-10.5-10.9-16.8
	c-2.7-6.7-4-14.5-4-23.3c-0.1-6.5,1.1-12.9,3.4-19c2.2-5.8,5.5-11.2,9.8-15.7c4.4-4.6,9.7-8.2,15.5-10.7
	C494.7,46,501.7,44.8,508.8,44.8z M509.4,65.5c-5.7,0-10.2,1.6-13.4,4.9s-5.3,7.9-6.4,14h37.3c0-2.3-0.3-4.7-0.9-6.9
	c-0.6-2.2-1.6-4.2-3-6c-1.5-1.8-3.3-3.3-5.4-4.3C515,66,512.2,65.4,509.4,65.5L509.4,65.5z"/>
<path class="st0" d="M600.8,2v80.9h4.4c1.5,0.1,2.9-0.2,4.3-0.8c1.2-0.7,2.1-1.6,2.8-2.8l18.9-28.2c1-1.5,2.3-2.8,3.9-3.7
	c1.8-0.9,3.7-1.3,5.7-1.2h27.4l-25.8,35.6c-1.1,1.6-2.5,3.1-4,4.4c-1.5,1.3-3,2.5-4.7,3.5c3.1,2.4,5.6,5.3,7.5,8.7l28.2,47.8h-27
	c-2,0-4-0.3-5.8-1.1c-1.7-0.8-3.2-2.2-4-3.9l-18.9-35.4c-0.9-1.6-1.8-2.7-2.8-3.1c-1.4-0.5-2.8-0.7-4.3-0.7h-5.8v44.3h-29.9V2H600.8
	z"/>
<path class="st1" d="M51.5,124.1l-23-15.8l-8.2,12c-4,5.9-2.5,14,3.4,18.1l12.3,8.4L51.5,124.1z"/>
<path class="st0" d="M57.9,91.8L15.3,62.6l-8.2,12c-4.1,5.9-2.6,14,3.4,18.1c0,0,0,0,0,0l42.6,29.2l8.2-12c4.1-5.9,2.6-13.9-3.3-18
	C57.9,91.9,57.9,91.8,57.9,91.8z"/>
<path class="st0" d="M19,24.8l23,15.8l8.2-12c4-5.9,2.5-14-3.4-18.1L34.5,2.1L19,24.8z"/>
<path class="st1" d="M59.8,56.3L17.2,27.1L9,39.1c-4.1,5.9-2.6,14,3.4,18.1c0,0,0,0,0,0L55,86.4l8.2-12
	C67.2,68.4,65.7,60.4,59.8,56.3z"/>
</svg>
